<?xml version="1.0"?>
<svg width="1000" height="1000" xmlns="http://www.w3.org/2000/svg" xmlns:svg="http://www.w3.org/2000/svg" enable-background="new 0 0 1000 1000" version="1.1" xml:space="preserve">
 <g class="layer">
  <title>Layer 1</title>
  <path d="m70.29,928.71c70.3,70.29 183.44,70.29 409.71,70.29l40,0c226.27,0 339.41,0 409.71,-70.29c70.29,-70.3 70.29,-183.44 70.29,-409.71l0,-40c0,-226.28 0,-339.42 -70.29,-409.71c-70.3,-70.29 -183.44,-70.29 -409.71,-70.29l-40,0c-226.27,0 -339.41,0 -409.71,70.29c-70.29,70.29 -70.29,183.43 -70.29,409.71l0,40c0,226.27 0,339.41 70.29,409.71z" fill="#ffffff" id="svg_1"/>
  <path clip-rule="evenodd" d="m773.06,663.68l-67.57,-16.88c-8.14,-2.33 -13.88,-9.66 -14.17,-18.16l-8.43,-248.69c-2.44,-32.92 -26.88,-59.09 -52.41,-66.8c-1.43,-0.44 -2.96,0.15 -3.81,1.38c-0.87,1.25 -0.53,2.99 0.67,3.92c6.31,4.88 23.66,20.81 23.66,48.28l-0.05,325.15c0,31.4 -29.67,54.42 -60.27,46.78l-68.61,-17.14c-7.61,-2.66 -12.89,-9.75 -13.17,-17.92l-8.43,-248.7c-2.44,-32.92 -26.87,-59.1 -52.41,-66.81c-1.43,-0.43 -2.96,0.15 -3.81,1.39c-0.86,1.25 -0.53,2.99 0.67,3.92c6.31,4.88 23.66,20.81 23.66,48.28l-0.05,271.03l0.04,0.01l0,54.14c0,31.4 -29.67,54.42 -60.27,46.78l-193.8,-48.41c-26.94,-6.73 -45.83,-30.83 -45.83,-58.47l0,-325.66c0,-31.4 29.67,-54.43 60.27,-46.78l122.11,30.5l0,-58.7c0,-31.4 29.67,-54.43 60.27,-46.78l122.11,30.5l0,-58.7c0,-31.4 29.66,-54.43 60.27,-46.78l193.79,48.41c26.94,6.73 45.84,30.83 45.84,58.47l0,325.66c0,31.4 -29.67,54.42 -60.27,46.78z" fill="#0088cc" fill-rule="evenodd" id="svg_2" stroke="#000000" stroke-opacity="0"/>
 </g>
</svg>